<svg width="60" height="54" viewBox="0 0 60 54" fill="none" xmlns="http://www.w3.org/2000/svg">
<path d="M10.5 0L10.5 3L19.5 3C20.3284 3 21 2.32843 21 1.5C21 0.671573 20.3284 -4.14968e-07 19.5 -3.79991e-07L10.5 0Z" fill="#F7FAFD"/>
<path d="M3 7.5L3 16.5C3 17.3284 3.67157 18 4.5 18C5.32843 18 6 17.3284 6 16.5L6 7.5L3 7.5Z" fill="#F7FAFD"/>
<path fill-rule="evenodd" clip-rule="evenodd" d="M10.5 -3.16659e-07L10.5002 -3.16667e-07L10.5002 3L10.5 3C8.01472 3 6 5.01472 6 7.5L3 7.5C3 3.35786 6.35786 -1.41773e-07 10.5 -3.16659e-07Z" fill="#F7FAFD"/>
<path d="M57 7.5L54 7.5L54 16.5C54 17.3284 54.6716 18 55.5 18C56.3284 18 57 17.3284 57 16.5L57 7.5Z" fill="#F7FAFD"/>
<path d="M49.5 0L40.5 -7.93637e-07C39.6716 -8.66689e-07 39 0.671572 39 1.5C39 2.32843 39.6716 3 40.5 3L49.5 3L49.5 0Z" fill="#F7FAFD"/>
<path fill-rule="evenodd" clip-rule="evenodd" d="M57 7.5L57 7.50018L54 7.50018L54 7.5C54 5.01472 51.9853 3 49.5 3C49.5 3 49.5 3 49.5 3L49.5 -6.55672e-07C49.5 -6.55672e-07 49.5 -6.55671e-07 49.5 -6.55671e-07C53.6422 -2.93554e-07 57 3.35786 57 7.5Z" fill="#F7FAFD"/>
<path d="M49.5 54L49.5 51L40.5 51C39.6716 51 39 51.6716 39 52.5C39 53.3284 39.6716 54 40.5 54L49.5 54Z" fill="#F7FAFD"/>
<path d="M57 46.5L57 37.5C57 36.6716 56.3284 36 55.5 36C54.6716 36 54 36.6716 54 37.5L54 46.5L57 46.5Z" fill="#F7FAFD"/>
<path fill-rule="evenodd" clip-rule="evenodd" d="M49.5 54L49.4998 54L49.4998 51L49.5 51C51.9853 51 54 48.9853 54 46.5L57 46.5C57 50.6421 53.6421 54 49.5 54Z" fill="#F7FAFD"/>
<path d="M3 46.5L6 46.5L6 37.5C6 36.6716 5.32843 36 4.5 36C3.67157 36 3 36.6716 3 37.5L3 46.5Z" fill="#F7FAFD"/>
<path d="M10.5 54L19.5 54C20.3284 54 21 53.3284 21 52.5C21 51.6716 20.3284 51 19.5 51L10.5 51L10.5 54Z" fill="#F7FAFD"/>
<path fill-rule="evenodd" clip-rule="evenodd" d="M2.99998 46.5L2.99998 46.4998L5.99998 46.4998L5.99998 46.5C5.99998 48.9853 8.0147 51 10.5 51C10.5 51 10.5 51 10.5 51L10.5 54C10.5 54 10.5 54 10.5 54C6.35785 54 2.99998 50.6421 2.99998 46.5Z" fill="#F7FAFD"/>
<rect y="25.5" width="60" height="3" rx="1" fill="#2F3943"/>
</svg>
